<?xml version="1.0" encoding="utf-8"?>
<!-- Generator: Adobe Illustrator 17.0.0, SVG Export Plug-In . SVG Version: 6.00 Build 0)  -->
<!DOCTYPE svg PUBLIC "-//W3C//DTD SVG 1.1//EN" "http://www.w3.org/Graphics/SVG/1.1/DTD/svg11.dtd">
<svg version="1.1" id="Layer_1" xmlns="http://www.w3.org/2000/svg" xmlns:xlink="http://www.w3.org/1999/xlink" x="0px" y="0px"
	 width="841.89px" height="595.28px" viewBox="0 0 841.89 595.28" enable-background="new 0 0 841.89 595.28" xml:space="preserve">
<g>
	<g>
		<path fill="#FFFFFF" d="M173.518,431.669c-5.128,0-9.053,1.564-11.777,4.691c-2.733,3.127-4.097,7.552-4.097,13.274
			c0,5.793,1.516,10.251,4.543,13.378c3.027,3.127,7.1,4.691,12.228,4.691c2.728,0,5.038-0.366,6.934-1.098
			c1.896-0.732,3.712-1.564,5.442-2.495c1.131,0.931,2.01,2.044,2.647,3.341c0.627,1.297,0.946,2.813,0.946,4.543
			c0,2.728-1.516,5.038-4.543,6.934c-3.027,1.901-7.632,2.847-13.82,2.847c-4.458,0-8.654-0.632-12.58-1.896
			c-3.926-1.264-7.352-3.208-10.28-5.841c-2.927-2.628-5.237-5.955-6.934-9.98c-1.697-4.025-2.547-8.83-2.547-14.424
			c0-5.19,0.813-9.761,2.447-13.72c1.63-3.959,3.854-7.304,6.687-10.032c2.828-2.728,6.135-4.79,9.928-6.188
			c3.797-1.397,7.851-2.096,12.18-2.096c6.121,0,10.859,0.998,14.219,2.994c3.36,1.996,5.042,4.558,5.042,7.685
			c0,1.73-0.432,3.227-1.297,4.491c-0.865,1.264-1.863,2.262-2.994,2.994c-1.73-1.131-3.579-2.096-5.541-2.894
			S176.113,431.669,173.518,431.669z"/>
		<path fill="#FFFFFF" d="M242.286,479.877c-0.665,0.2-1.716,0.399-3.146,0.599c-1.43,0.2-2.908,0.299-4.439,0.299
			c-1.464,0-2.78-0.1-3.945-0.299c-1.164-0.2-2.143-0.599-2.942-1.198c-0.798-0.599-1.416-1.411-1.849-2.448
			c-0.432-1.027-0.646-2.376-0.646-4.04v-22.161c0-2.728-0.684-4.638-2.048-5.736c-1.364-1.098-3.042-1.649-5.038-1.649
			c-1.335,0-2.595,0.166-3.792,0.499c-1.202,0.337-2.167,0.737-2.899,1.198v34.935c-0.665,0.2-1.711,0.399-3.141,0.599
			c-1.43,0.2-2.913,0.299-4.444,0.299c-1.464,0-2.775-0.1-3.94-0.299c-1.164-0.2-2.148-0.599-2.947-1.198
			c-0.798-0.599-1.411-1.411-1.844-2.448c-0.437-1.027-0.651-2.376-0.651-4.04v-57.889c0.732-0.133,1.811-0.318,3.246-0.551
			c1.43-0.233,2.875-0.347,4.339-0.347c1.464,0,2.78,0.1,3.945,0.299c1.164,0.2,2.143,0.599,2.942,1.198
			c0.798,0.599,1.416,1.411,1.849,2.443c0.432,1.031,0.646,2.381,0.646,4.044v9.781c0.865-0.333,2.181-0.713,3.945-1.145
			c1.763-0.432,3.707-0.651,5.841-0.651c6.587,0,11.724,1.649,15.417,4.943c3.697,3.293,5.541,8.198,5.541,14.718V479.877z"/>
		<path fill="#FFFFFF" d="M268.738,429.972c3.593,0,6.867,0.366,9.828,1.098s5.489,1.849,7.585,3.346s3.712,3.393,4.843,5.689
			c1.131,2.295,1.697,5.004,1.697,8.131v22.36c0,1.73-0.485,3.141-1.449,4.239c-0.965,1.098-2.11,2.048-3.441,2.847
			c-4.325,2.595-10.417,3.892-18.264,3.892c-3.531,0-6.706-0.333-9.533-0.998c-2.828-0.665-5.256-1.663-7.285-2.994
			c-2.034-1.331-3.593-3.027-4.691-5.09c-1.098-2.063-1.649-4.458-1.649-7.186c0-4.591,1.364-8.117,4.092-10.584
			c2.728-2.457,6.953-3.992,12.675-4.591l13.079-1.397v-0.699c0-1.93-0.851-3.308-2.547-4.139s-4.139-1.25-7.338-1.25
			c-2.528,0-4.99,0.266-7.385,0.798c-2.395,0.532-4.558,1.198-6.487,1.996c-0.865-0.599-1.597-1.511-2.196-2.742
			c-0.599-1.231-0.898-2.514-0.898-3.845c0-1.73,0.413-3.108,1.25-4.139c0.832-1.031,2.11-1.915,3.84-2.647
			c1.929-0.732,4.211-1.264,6.839-1.597C263.928,430.138,266.404,429.972,268.738,429.972z M269.536,469.199
			c1.126,0,2.376-0.114,3.74-0.352c1.364-0.233,2.381-0.547,3.046-0.946v-7.984l-7.186,0.599c-1.868,0.133-3.398,0.532-4.596,1.198
			c-1.198,0.665-1.796,1.663-1.796,2.994c0,1.331,0.518,2.409,1.549,3.241C265.325,468.78,267.07,469.199,269.536,469.199z"/>
		<path fill="#FFFFFF" d="M316.343,479.877c-0.732,0.133-1.811,0.314-3.241,0.551c-1.43,0.228-2.88,0.347-4.344,0.347
			s-2.775-0.1-3.94-0.299c-1.164-0.2-2.148-0.599-2.947-1.198c-0.798-0.599-1.411-1.411-1.844-2.448
			c-0.437-1.027-0.651-2.376-0.651-4.04v-57.889c0.732-0.133,1.811-0.318,3.246-0.551c1.43-0.233,2.875-0.347,4.339-0.347
			s2.78,0.1,3.945,0.299c1.164,0.2,2.143,0.599,2.942,1.198c0.798,0.599,1.416,1.411,1.849,2.443
			c0.432,1.031,0.646,2.381,0.646,4.044V479.877z"/>
		<path fill="#FFFFFF" d="M340.295,479.877c-0.732,0.133-1.811,0.314-3.241,0.551c-1.43,0.228-2.88,0.347-4.344,0.347
			c-1.464,0-2.775-0.1-3.94-0.299c-1.164-0.2-2.148-0.599-2.947-1.198c-0.798-0.599-1.411-1.411-1.844-2.448
			c-0.437-1.027-0.651-2.376-0.651-4.04v-57.889c0.732-0.133,1.811-0.318,3.246-0.551c1.43-0.233,2.875-0.347,4.339-0.347
			c1.464,0,2.78,0.1,3.945,0.299c1.164,0.2,2.143,0.599,2.942,1.198s1.416,1.411,1.849,2.443s0.646,2.381,0.646,4.044V479.877z"/>
		<path fill="#FFFFFF" d="M372.64,481.574c-3.93,0-7.571-0.547-10.931-1.649c-3.36-1.098-6.287-2.742-8.783-4.938
			c-2.495-2.196-4.458-4.957-5.888-8.283c-1.435-3.327-2.148-7.219-2.148-11.677c0-4.396,0.713-8.169,2.148-11.33
			c1.431-3.16,3.308-5.755,5.636-7.784c2.329-2.029,4.99-3.526,7.984-4.491c2.994-0.965,6.055-1.449,9.186-1.449
			c3.526,0,6.734,0.532,9.628,1.597s5.389,2.528,7.485,4.391c2.096,1.863,3.726,4.092,4.895,6.687
			c1.16,2.595,1.744,5.427,1.744,8.483c0,2.267-0.632,3.997-1.896,5.194c-1.264,1.198-3.027,1.963-5.289,2.295l-24.656,3.693
			c0.732,2.196,2.229,3.84,4.491,4.938c2.262,1.098,4.857,1.649,7.789,1.649c2.728,0,5.304-0.352,7.732-1.05
			c2.428-0.699,4.41-1.511,5.941-2.443c1.065,0.665,1.963,1.597,2.695,2.794c0.732,1.198,1.098,2.462,1.098,3.792
			c0,2.994-1.397,5.223-4.192,6.687c-2.129,1.131-4.524,1.896-7.186,2.295C377.464,481.374,374.969,481.574,372.64,481.574z
			 M369.846,442.347c-1.597,0-2.98,0.266-4.144,0.798c-1.164,0.532-2.115,1.217-2.847,2.048c-0.732,0.832-1.278,1.763-1.644,2.794
			c-0.366,1.031-0.585,2.082-0.651,3.141l17.071-2.794c-0.2-1.331-0.936-2.657-2.196-3.992
			C374.17,443.013,372.303,442.347,369.846,442.347z"/>
		<path fill="#FFFFFF" d="M428.533,449.234c0-2.058-0.585-3.574-1.749-4.539s-2.742-1.449-4.738-1.449
			c-1.335,0-2.647,0.166-3.945,0.499c-1.297,0.337-2.414,0.836-3.346,1.497v34.636c-0.665,0.2-1.711,0.399-3.141,0.599
			c-1.43,0.2-2.913,0.299-4.444,0.299c-1.464,0-2.775-0.1-3.94-0.299c-1.164-0.2-2.148-0.599-2.947-1.198
			c-0.798-0.599-1.411-1.411-1.844-2.448c-0.437-1.027-0.651-2.376-0.651-4.04v-29.945c0-1.796,0.385-3.26,1.15-4.391
			c0.76-1.131,1.811-2.162,3.141-3.094c2.262-1.597,5.109-2.894,8.535-3.892c3.426-0.998,7.238-1.497,11.43-1.497
			c7.518,0,13.307,1.649,17.365,4.943c4.059,3.293,6.088,7.865,6.088,13.72v31.242c-0.665,0.2-1.716,0.399-3.146,0.599
			c-1.43,0.2-2.908,0.299-4.439,0.299c-1.464,0-2.78-0.1-3.945-0.299c-1.164-0.2-2.143-0.599-2.942-1.198
			c-0.798-0.599-1.416-1.411-1.849-2.448c-0.432-1.027-0.646-2.376-0.646-4.04V449.234z"/>
		<path fill="#FFFFFF" d="M449.886,455.725c0-4.396,0.665-8.203,1.996-11.43s3.179-5.907,5.541-8.036
			c2.362-2.129,5.123-3.707,8.283-4.738s6.568-1.549,10.232-1.549c1.326,0,2.628,0.119,3.892,0.352
			c1.259,0.233,2.295,0.513,3.094,0.846v-16.168c0.665-0.2,1.73-0.418,3.194-0.651c1.464-0.233,2.961-0.347,4.491-0.347
			c1.464,0,2.775,0.1,3.94,0.299c1.164,0.2,2.148,0.599,2.947,1.198c0.798,0.599,1.397,1.411,1.796,2.443
			c0.399,1.031,0.599,2.381,0.599,4.044v47.31c0,3.127-1.464,5.622-4.391,7.485c-1.93,1.264-4.425,2.381-7.485,3.346
			c-3.061,0.96-6.587,1.445-10.579,1.445c-4.329,0-8.203-0.599-11.629-1.796c-3.426-1.198-6.321-2.927-8.683-5.19
			c-2.362-2.262-4.158-4.976-5.389-8.136C450.499,463.291,449.886,459.717,449.886,455.725z M478.234,443.246
			c-3.593,0-6.359,1.036-8.288,3.094c-1.929,2.063-2.894,5.19-2.894,9.386c0,4.125,0.898,7.233,2.695,9.329
			c1.796,2.096,4.396,3.146,7.789,3.146c1.198,0,2.276-0.185,3.241-0.551c0.965-0.366,1.711-0.779,2.248-1.245v-21.961
			C481.689,443.645,480.093,443.246,478.234,443.246z"/>
		<path fill="#FFFFFF" d="M532.136,481.574c-3.93,0-7.571-0.547-10.931-1.649c-3.36-1.098-6.287-2.742-8.782-4.938
			c-2.495-2.196-4.458-4.957-5.888-8.283c-1.435-3.327-2.148-7.219-2.148-11.677c0-4.396,0.713-8.169,2.148-11.33
			c1.43-3.16,3.308-5.755,5.636-7.784c2.329-2.029,4.99-3.526,7.984-4.491c2.994-0.965,6.055-1.449,9.186-1.449
			c3.526,0,6.734,0.532,9.628,1.597s5.389,2.528,7.485,4.391c2.096,1.863,3.726,4.092,4.895,6.687
			c1.16,2.595,1.744,5.427,1.744,8.483c0,2.267-0.632,3.997-1.896,5.194c-1.264,1.198-3.027,1.963-5.289,2.295l-24.656,3.693
			c0.732,2.196,2.229,3.84,4.491,4.938s4.857,1.649,7.789,1.649c2.728,0,5.304-0.352,7.732-1.05c2.429-0.699,4.41-1.511,5.941-2.443
			c1.065,0.665,1.963,1.597,2.695,2.794c0.732,1.198,1.098,2.462,1.098,3.792c0,2.994-1.397,5.223-4.192,6.687
			c-2.129,1.131-4.524,1.896-7.186,2.295C536.96,481.374,534.465,481.574,532.136,481.574z M529.342,442.347
			c-1.597,0-2.98,0.266-4.144,0.798c-1.164,0.532-2.115,1.217-2.847,2.048c-0.732,0.832-1.278,1.763-1.644,2.794
			c-0.366,1.031-0.585,2.082-0.651,3.141l17.071-2.794c-0.2-1.331-0.936-2.657-2.196-3.992
			C533.667,443.013,531.799,442.347,529.342,442.347z"/>
		<path fill="#FFFFFF" d="M580.54,429.972c2.728,0,5.404,0.385,8.032,1.15s4.909,1.91,6.839,3.441
			c1.996-1.331,4.239-2.428,6.739-3.293c2.495-0.865,5.503-1.297,9.03-1.297c2.528,0,5.009,0.333,7.438,0.998
			c2.429,0.665,4.591,1.716,6.487,3.146c1.896,1.43,3.408,3.327,4.543,5.689c1.126,2.362,1.697,5.237,1.697,8.63v31.442
			c-0.67,0.2-1.716,0.399-3.146,0.599c-1.43,0.2-2.913,0.299-4.444,0.299c-1.464,0-2.775-0.1-3.94-0.299
			c-1.164-0.2-2.148-0.599-2.947-1.198c-0.798-0.599-1.411-1.411-1.844-2.448c-0.432-1.027-0.651-2.376-0.651-4.04v-23.857
			c0-1.996-0.566-3.441-1.697-4.339c-1.131-0.898-2.661-1.35-4.591-1.35c-0.931,0-1.93,0.219-2.994,0.651
			c-1.065,0.432-1.863,0.884-2.395,1.345c0.067,0.266,0.1,0.518,0.1,0.751c0,0.233,0,0.447,0,0.646v33.238
			c-0.732,0.2-1.815,0.399-3.246,0.599c-1.43,0.2-2.875,0.299-4.339,0.299s-2.78-0.1-3.945-0.299
			c-1.164-0.2-2.143-0.599-2.942-1.198c-0.798-0.599-1.416-1.411-1.849-2.448c-0.432-1.027-0.646-2.376-0.646-4.04v-23.857
			c0-1.996-0.618-3.441-1.849-4.339c-1.231-0.898-2.714-1.35-4.439-1.35c-1.198,0-2.234,0.185-3.099,0.551
			c-0.865,0.366-1.597,0.713-2.196,1.046v35.035c-0.665,0.2-1.711,0.399-3.141,0.599c-1.43,0.2-2.913,0.299-4.443,0.299
			c-1.464,0-2.775-0.1-3.94-0.299c-1.164-0.2-2.148-0.599-2.947-1.198c-0.798-0.599-1.411-1.411-1.844-2.448
			c-0.437-1.027-0.651-2.376-0.651-4.04v-30.145c0-1.796,0.385-3.227,1.15-4.291c0.76-1.065,1.811-2.063,3.141-2.994
			c2.262-1.597,5.076-2.894,8.436-3.892S576.876,429.972,580.54,429.972z"/>
		<path fill="#FFFFFF" d="M637.332,417.996c0-2.528,0.851-4.657,2.547-6.387s3.94-2.595,6.734-2.595s5.042,0.865,6.739,2.595
			s2.543,3.859,2.543,6.387s-0.846,4.657-2.543,6.387s-3.945,2.595-6.739,2.595s-5.038-0.865-6.734-2.595
			S637.332,420.524,637.332,417.996z M655.096,479.877c-0.732,0.133-1.811,0.314-3.241,0.551c-1.43,0.228-2.88,0.347-4.344,0.347
			s-2.775-0.1-3.94-0.299c-1.164-0.2-2.148-0.599-2.946-1.198c-0.798-0.599-1.411-1.411-1.844-2.448
			c-0.437-1.027-0.651-2.376-0.651-4.04v-40.624c0.732-0.133,1.811-0.314,3.246-0.547c1.43-0.233,2.875-0.352,4.339-0.352
			s2.78,0.1,3.945,0.299c1.164,0.2,2.143,0.599,2.942,1.198c0.798,0.599,1.416,1.416,1.849,2.447
			c0.432,1.031,0.646,2.376,0.646,4.04V479.877z"/>
		<path fill="#FFFFFF" d="M689.235,443.345c-1.663,0-3.246,0.266-4.743,0.798c-1.497,0.537-2.794,1.316-3.892,2.348
			c-1.098,1.031-1.982,2.31-2.647,3.84c-0.665,1.535-0.998,3.331-0.998,5.394c0,4.125,1.183,7.219,3.545,9.281
			c2.362,2.063,5.242,3.094,8.635,3.094c1.996,0,3.726-0.233,5.19-0.699s2.761-0.965,3.892-1.497
			c1.331,0.931,2.329,1.944,2.994,3.042c0.665,1.098,0.998,2.414,0.998,3.945c0,2.728-1.297,4.838-3.892,6.335
			c-2.595,1.502-6.188,2.248-10.779,2.248c-4.192,0-7.989-0.618-11.382-1.849c-3.393-1.226-6.302-2.956-8.73-5.19
			c-2.433-2.229-4.31-4.905-5.641-8.032c-1.331-3.127-1.996-6.587-1.996-10.379c0-4.396,0.713-8.236,2.148-11.529
			c1.43-3.293,3.374-6.007,5.836-8.136c2.462-2.129,5.308-3.726,8.535-4.79c3.227-1.065,6.639-1.597,10.232-1.597
			c4.79,0,8.483,0.865,11.078,2.595s3.892,3.959,3.892,6.687c0,1.264-0.299,2.448-0.898,3.545s-1.297,2.044-2.096,2.842
			c-1.131-0.532-2.495-1.046-4.092-1.545C692.828,443.597,691.093,443.345,689.235,443.345z"/>
	</g>
	<path  fill="black" d="M563.197,252.087c-1.654-7.592-5.45-14.307-14.259-11.29c-6.229,2.141-10.755,7.397-17.227,8.176
		c-6.765,0.828-14.21-0.973-20.683-2.774c-3.553-0.973-7.592-1.411-11.339-1.022c-0.487-3.942-1.265-7.787-2.336-11.534
		c2.141-1.46,4.283-3.017,6.132-3.796c2.579-1.119,5.791-1.314,8.662-1.654c4.088-0.487,13.188,4.526,15.183-1.168
		c1.363-3.893-2.19-10.852-4.331-14.064c-2.433-3.601-5.84-6.375-9.83-2.92c-2.823,2.385-4.088,6.083-7.3,7.835
		c-3.407,1.849-7.689,2.482-11.436,2.871c-0.584,0.049-1.168,0.146-1.752,0.292c-1.654-3.601-3.552-7.008-5.694-10.317
		c3.796-4.915,6.959-11.242,10.317-14.794c3.407-3.65,8.565-6.229,12.945-8.76c6.278-3.65,24.576-1.898,23.895-12.458
		c-0.535-7.348-11.144-16.205-16.887-19.953c-6.57-4.185-13.967-6.229-18.103,2.093c-2.871,5.937-2.336,12.848-6.375,18.006
		c-4.185,5.353-10.755,9.344-16.595,12.653c-2.093,1.168-4.136,2.677-5.986,4.38c-4.574-3.844-9.587-7.154-14.891-9.879
		c0.292-1.217,0.535-2.336,0.925-3.309c1.07-2.628,3.163-5.061,4.964-7.3c2.53-3.212,12.507-6.132,9.928-11.534
		c-1.801-3.747-9.198-6.18-13.042-6.91c-4.283-0.827-8.614-0.389-9.003,4.866c-0.292,3.699,1.46,7.202,0.389,10.755
		c-0.925,3.163-2.968,6.132-4.964,8.76c-5.645-2.044-11.534-3.455-17.665-4.137c-0.973-5.402-2.628-10.95-2.774-15.183
		c-0.146-5.012,1.654-10.463,2.968-15.378c1.898-7.008,16.059-18.687,8.078-25.695c-5.548-4.818-19.32-3.601-26.036-2.141
		c-7.592,1.655-14.307,5.451-11.29,14.259c2.141,6.229,7.397,10.755,8.176,17.227c0.828,6.764-0.973,14.21-2.774,20.683
		c-0.584,2.19-1.022,4.526-1.119,6.91c-6.424,1.119-12.604,2.968-18.444,5.499c-0.536-0.925-1.071-1.752-1.411-2.579
		c-1.119-2.628-1.314-5.84-1.654-8.711c-0.487-4.088,4.526-13.14-1.168-15.135c-3.893-1.411-10.852,2.141-14.064,4.283
		c-3.65,2.433-6.375,5.84-2.92,9.83c2.385,2.822,6.083,4.088,7.835,7.3c1.703,3.114,2.385,6.959,2.774,10.511
		c-5.499,3.407-10.561,7.397-15.086,11.874c-3.893-2.482-7.884-4.818-10.463-7.251c-3.65-3.455-6.229-8.565-8.76-12.993
		c-3.65-6.278-1.898-24.527-12.458-23.846c-7.348,0.487-16.254,11.096-19.952,16.887c-4.185,6.521-6.278,13.967,2.093,18.055
		c5.937,2.92,12.848,2.385,17.957,6.424c5.402,4.185,9.392,10.706,12.701,16.546c1.12,2.044,2.531,4.039,4.137,5.791
		c-1.606,2.92-2.969,5.888-4.185,9.003c-0.34-0.097-0.681-0.195-0.973-0.341c-2.628-1.022-5.061-3.163-7.348-4.964
		c-3.212-2.53-6.083-12.507-11.485-9.879c-3.747,1.752-6.181,9.198-6.911,12.993c-0.876,4.283-0.389,8.614,4.866,9.003
		c3.699,0.292,7.203-1.411,10.706-0.389c2.725,0.827,5.353,2.433,7.689,4.185c-0.876,3.504-1.509,7.056-1.898,10.706
		c-5.402,0.925-10.998,2.628-15.232,2.774c-5.012,0.146-10.463-1.655-15.378-2.968c-7.008-1.898-18.687-16.06-25.695-8.079
		c-4.818,5.548-3.601,19.32-2.141,26.036c1.655,7.592,5.45,14.307,14.259,11.29c6.229-2.141,10.755-7.397,17.228-8.176
		c6.764-0.827,14.21,0.973,20.683,2.774c2.238,0.633,4.672,1.022,7.105,1.119c0.828,4.623,2.044,9.101,3.65,13.383
		c-1.07,0.73-2.093,1.363-3.066,1.752c-2.628,1.119-5.84,1.362-8.711,1.703c-4.088,0.438-13.14-4.526-15.135,1.119
		c-1.411,3.893,2.141,10.852,4.283,14.064c2.433,3.65,5.84,6.375,9.83,2.968c2.823-2.433,4.088-6.132,7.3-7.884
		c3.066-1.654,6.862-2.287,10.366-2.725c1.898,3.504,4.039,6.862,6.375,10.074c-3.552,4.818-6.618,10.755-9.83,14.162
		c-3.455,3.65-8.565,6.229-12.994,8.76c-6.278,3.601-24.576,1.849-23.894,12.458c0.535,7.348,11.144,16.206,16.887,19.952
		c6.57,4.185,14.016,6.229,18.104-2.141c2.871-5.888,2.385-12.799,6.375-17.957c4.234-5.353,10.755-9.344,16.595-12.653
		c2.287-1.314,4.526-2.969,6.473-4.866c3.699,2.725,7.592,5.158,11.728,7.202c-0.389,2.093-0.779,4.088-1.363,5.597
		c-1.07,2.628-3.212,5.061-4.964,7.348c-2.579,3.212-12.507,6.083-9.928,11.485c1.801,3.747,9.198,6.181,13.042,6.91
		c4.283,0.876,8.614,0.389,9.003-4.866c0.292-3.699-1.46-7.202-0.389-10.706c1.07-3.698,3.699-7.154,6.034-10.122
		c0.146-0.195,0.341-0.389,0.487-0.633c4.526,1.46,9.246,2.579,14.064,3.26c0.341,6.764,3.212,14.794,3.407,20.391
		c0.146,5.013-1.655,10.463-2.969,15.378c-1.898,7.008-16.06,18.687-8.079,25.695c5.548,4.818,19.32,3.601,26.036,2.141
		c7.592-1.655,14.307-5.45,11.29-14.259c-2.141-6.229-7.397-10.755-8.176-17.228c-0.827-6.764,0.973-14.21,2.774-20.683
		c1.022-3.65,1.411-7.786,1.022-11.631c6.667-1.071,13.042-2.92,19.077-5.45c1.557,2.482,3.504,4.915,4.38,7.008
		c1.119,2.628,1.314,5.84,1.654,8.711c0.487,4.039-4.526,13.14,1.119,15.135c3.893,1.363,10.901-2.141,14.113-4.331
		c3.601-2.433,6.326-5.84,2.92-9.83c-2.433-2.823-6.132-4.088-7.884-7.3c-1.849-3.358-2.433-7.64-2.871-11.436
		c-0.146-1.46-0.487-2.968-1.07-4.428c3.455-2.19,6.764-4.623,9.83-7.3c5.013,4.964,13.286,8.711,17.568,12.75
		c3.65,3.455,6.229,8.565,8.76,12.993c3.601,6.278,1.849,24.527,12.458,23.846c7.348-0.487,16.205-11.096,19.952-16.887
		c4.185-6.521,6.229-13.967-2.141-18.054c-5.889-2.871-12.799-2.385-17.957-6.424c-5.353-4.185-9.344-10.706-12.653-16.546
		c-2.336-4.088-5.791-8.03-9.733-10.511c1.946-3.115,3.747-6.375,5.256-9.782c2.774,0.584,5.597,0.973,7.592,1.752
		c2.676,1.022,5.061,3.163,7.348,4.964c3.212,2.531,6.083,12.507,11.534,9.879c3.699-1.801,6.132-9.197,6.911-12.993
		c0.827-4.283,0.341-8.614-4.915-9.052c-3.699-0.243-7.202,1.46-10.706,0.438c-3.699-1.119-7.154-3.698-10.122-6.083
		c-0.876-0.73-1.898-1.362-2.92-1.946c0.681-2.482,1.217-4.964,1.655-7.543c6.862-0.244,15.037-3.212,20.731-3.407
		c5.013-0.146,10.463,1.654,15.378,2.969c7.008,1.898,18.687,16.059,25.695,8.079C565.873,272.575,564.657,258.803,563.197,252.087z
		 M506.308,156.655l0.487-0.438c1.654-1.411,10.171,4.623,11.874,5.791c2.238,1.557,16.254,16.108,7.689,15.767
		c-2.677-0.146-6.521-2.725-8.419-4.477c-3.407-3.26-7.494-5.84-10.074-9.733C506.746,161.911,504.75,158.456,506.308,156.655z
		 M324.836,168.87c-3.26,3.358-5.84,7.446-9.782,10.074c-1.654,1.119-5.061,3.114-6.862,1.509l-0.438-0.438
		c-1.411-1.703,4.623-10.171,5.791-11.923c1.509-2.238,16.108-16.254,15.767-7.64C329.167,163.128,326.588,166.923,324.836,168.87z
		 M288.046,264.886c-0.389,1.947-1.411,5.791-3.796,5.937h-0.633c-2.19-0.195-3.942-10.463-4.331-12.507
		c-0.487-2.677-0.097-22.873,5.742-16.595c1.801,1.995,2.677,6.521,2.774,9.149C287.899,255.542,288.97,260.262,288.046,264.886z
		 M330.481,359.344l-0.487,0.438c-1.655,1.411-10.171-4.623-11.874-5.791c-2.239-1.557-16.254-16.108-7.689-15.767
		c2.677,0.097,6.521,2.677,8.419,4.477c3.406,3.26,7.494,5.84,10.122,9.733C330.043,354.089,332.039,357.544,330.481,359.344z
		 M438.274,270.823c2.336,0,4.234,1.898,4.234,4.185c0,2.336-1.898,4.234-4.234,4.234s-4.185-1.898-4.185-4.234
		C434.089,272.721,435.938,270.823,438.274,270.823z M402.7,123.855v-0.633c0.195-2.19,10.463-3.942,12.507-4.331
		c2.677-0.487,22.873-0.097,16.595,5.742c-1.995,1.801-6.521,2.677-9.149,2.774c-4.672,0.097-9.392,1.168-14.016,0.243
		C406.691,127.262,402.846,126.239,402.7,123.855z M373.939,245.322c-4.964,0-9.052-4.039-9.052-9.052
		c0-5.012,4.088-9.052,9.052-9.052c5.012,0,9.052,4.039,9.052,9.052C382.991,241.283,378.952,245.322,373.939,245.322z
		 M396.276,244.738c-2.287,0-4.185-1.898-4.185-4.234c0-2.287,1.898-4.185,4.185-4.185c2.336,0,4.234,1.898,4.234,4.185
		C400.51,242.841,398.612,244.738,396.276,244.738z M396.276,223.034c-8.03,0-14.599-6.521-14.599-14.599
		c0-8.079,6.57-14.599,14.599-14.599c8.079,0,14.599,6.521,14.599,14.599C410.876,216.513,404.355,223.034,396.276,223.034z
		 M429.563,393.653v0.633c-0.195,2.19-10.463,3.942-12.507,4.331c-2.676,0.487-22.873,0.097-16.595-5.742
		c1.995-1.801,6.521-2.677,9.149-2.774c4.672-0.097,9.392-1.168,14.016-0.243C425.573,390.247,429.417,391.269,429.563,393.653z
		 M438.274,321.726c-8.03,0-14.599-6.57-14.599-14.599c0-8.078,6.57-14.599,14.599-14.599c8.078,0,14.599,6.521,14.599,14.599
		C452.874,315.157,446.352,321.726,438.274,321.726z M460.611,288.342c-4.964,0-9.003-4.088-9.003-9.052
		c0-5.013,4.039-9.052,9.003-9.052c5.012,0,9.052,4.039,9.052,9.052C469.663,284.254,465.624,288.342,460.611,288.342z
		 M511.563,353.066c3.26-3.358,5.84-7.446,9.733-10.074c1.655-1.119,5.11-3.115,6.91-1.509l0.438,0.438
		c1.411,1.703-4.623,10.171-5.791,11.923c-1.557,2.238-16.108,16.254-15.767,7.689C507.184,358.809,509.763,355.013,511.563,353.066
		z M553.367,274.813c-1.801-1.995-2.677-6.521-2.774-9.149c-0.097-4.672-1.168-9.392-0.243-14.015
		c0.389-1.947,1.411-5.791,3.796-5.937h0.633c2.19,0.195,3.942,10.463,4.331,12.507
		C559.596,260.895,559.206,281.091,553.367,274.813z"/>
</g>
</svg>
